=============================
 Run: Sat May 30 08:31:15 UTC 2026
=============================
Generating Sinhala audio via Azure TTS...
  % Total    % Received % Xferd  Average Speed   Time    Time     Time  Current
                                 Dload  Upload   Total   Spent    Left  Speed
  0     0    0     0    0     0      0      0 --:--:-- --:--:-- --:--:--     0  0     0    0     0    0     0      0      0 --:--:-- --:--:-- --:--:--     0100  4915    0  2880  100  2035   1606   1134  0:00:01  0:00:01 --:--:--  2739100  530k    0  528k  100  2035   211k    812  0:00:02  0:00:02 --:--:--  211k100 1655k    0 1653k  100  2035   620k    763  0:00:02  0:00:02 --:--:--  621k
Sinhala audio OK (HTTP 200)
Generating English audio via Azure TTS...
  % Total    % Received % Xferd  Average Speed   Time    Time     Time  Current
                                 Dload  Upload   Total   Spent    Left  Speed
  0     0    0     0    0     0      0      0 --:--:-- --:--:-- --:--:--     0100   923    0     0  100   923      0    605  0:00:01  0:00:01 --:--:--   605100 38363    0 37440  100   923  22151    546  0:00:01  0:00:01 --:--:-- 22686100  203k    0  202k  100   923  75093    334  0:00:02  0:00:02 --:--:-- 75410100  456k    0  455k  100   923   120k    244  0:00:03  0:00:03 --:--:--  121k100  681k    0  680k  100   923   142k    192  0:00:04  0:00:04 --:--:--  142k100  857k    0  856k  100   923   150k    162  0:00:05  0:00:05 --:--:--  205k100 1137k    0 1136k  100   923   151k    122  0:00:07  0:00:07 --:--:--  188k100 1272k    0 1271k  100   923   163k    118  0:00:07  0:00:07 --:--:--  213k100 1433k    0 1432k  100   923   173k    111  0:00:08  0:00:08 --:--:--  217k
English audio OK (HTTP 200)
Creating Sinhala video...
ffmpeg version 8.1.1 Copyright (c) 2000-2026 the FFmpeg developers
  built with Apple clang version 17.0.0 (clang-1700.6.4.2)
  configuration: --prefix=/opt/homebrew/Cellar/ffmpeg/8.1.1 --enable-shared --enable-pthreads --enable-version3 --cc=clang --host-cflags= --host-ldflags= --enable-ffplay --enable-gpl --enable-libsvtav1 --enable-libopus --enable-libx264 --enable-libmp3lame --enable-libdav1d --enable-libvmaf --enable-libvpx --enable-libx265 --enable-openssl --enable-videotoolbox --enable-audiotoolbox --enable-neon
  libavutil      60. 26.101 / 60. 26.101
  libavcodec     62. 28.101 / 62. 28.101
  libavformat    62. 12.101 / 62. 12.101
  libavdevice    62.  3.101 / 62.  3.101
  libavfilter    11. 14.101 / 11. 14.101
  libswscale      9.  5.101 /  9.  5.101
  libswresample   6.  3.101 /  6.  3.101
Input #0, image2, from 'poster.jpg':
  Duration: 00:00:00.04, start: 0.000000, bitrate: 43548 kb/s
  Stream #0:0: Video: mjpeg (Progressive), yuvj420p(pc, bt470bg/unknown/unknown), 842x1191 [SAR 1:1 DAR 842:1191], 25 fps, 25 tbr, 25 tbn
[in#1/mp3 @ 0x155e071f0] Estimating duration from bitrate, this may be inaccurate
Input #1, mp3, from 'sinhala.mp3':
  Duration: 00:01:10.56, start: 0.000000, bitrate: 192 kb/s
  Stream #1:0: Audio: mp3 (mp3float), 48000 Hz, mono, fltp, 192 kb/s
Stream mapping:
  Stream #0:0 -> #0:0 (mjpeg (native) -> h264 (libx264))
  Stream #1:0 -> #0:1 (mp3 (mp3float) -> aac (native))
Press [q] to stop, [?] for help
[swscaler @ 0x138198000] deprecated pixel format used, make sure you did set range correctly
[libx264 @ 0x155e108b0] using SAR=1190/1191
[libx264 @ 0x155e108b0] using cpu capabilities: ARMv8 NEON DotProd
[libx264 @ 0x155e108b0] profile High, level 3.2, 4:2:0, 8-bit
[libx264 @ 0x155e108b0] 264 - core 165 r3222 b35605a - H.264/MPEG-4 AVC codec - Copyleft 2003-2025 - http://www.videolan.org/x264.html - options: cabac=1 ref=3 deblock=1:-3:-3 analyse=0x3:0x113 me=hex subme=7 psy=1 psy_rd=2.00:0.70 mixed_ref=1 me_range=16 chroma_me=1 trellis=1 8x8dct=1 cqm=0 deadzone=21,11 fast_pskip=1 chroma_qp_offset=-4 threads=4 lookahead_threads=1 sliced_threads=0 nr=0 decimate=1 interlaced=0 bluray_compat=0 constrained_intra=0 bframes=3 b_pyramid=2 b_adapt=1 b_bias=0 direct=1 weightb=1 open_gop=0 weightp=2 keyint=250 keyint_min=25 scenecut=40 intra_refresh=0 rc_lookahead=40 rc=crf mbtree=1 crf=23.0 qcomp=0.60 qpmin=0 qpmax=69 qpstep=4 ip_ratio=1.40 aq=1:1.20
Output #0, mp4, to 'vesak_sinhala.mp4':
  Metadata:
    encoder         : Lavf62.12.101
  Stream #0:0: Video: h264 (avc1 / 0x31637661), yuv420p(pc, bt470bg/unknown/unknown, progressive), 842x1190 [SAR 1190:1191 DAR 842:1191], q=2-31, 25 fps, 12800 tbn
    Metadata:
      encoder         : Lavc62.28.101 libx264
    Side data:
      CPB properties: bitrate max/min/avg: 0/0/0 buffer size: 0 vbv_delay: N/A
  Stream #0:1: Audio: aac (LC) (mp4a / 0x6134706D), 48000 Hz, mono, fltp, 192 kb/s
    Metadata:
      encoder         : Lavc62.28.101 aac
frame=   27 fps=0.0 q=28.0 size=     256KiB time=00:00:01.00 bitrate=2097.5kbits/s speed=1.98x elapsed=0:00:00.50    frame=  116 fps=101 q=28.0 size=     256KiB time=00:00:04.56 bitrate= 460.0kbits/s speed=3.97x elapsed=0:00:01.14    frame=  159 fps= 92 q=28.0 size=     256KiB time=00:00:06.28 bitrate= 334.0kbits/s speed=3.62x elapsed=0:00:01.73    frame=  159 fps= 67 q=28.0 size=     256KiB time=00:00:06.28 bitrate= 334.0kbits/s speed=2.65x elapsed=0:00:02.36    frame=  201 fps= 67 q=28.0 size=     256KiB time=00:00:07.96 bitrate= 263.5kbits/s speed=2.66x elapsed=0:00:02.99    frame=  269 fps= 76 q=28.0 size=     512KiB time=00:00:10.68 bitrate= 392.8kbits/s speed=3.02x elapsed=0:00:03.53    frame=  339 fps= 84 q=28.0 size=     768KiB time=00:00:13.48 bitrate= 466.8kbits/s speed=3.34x elapsed=0:00:04.03    frame=  415 fps= 91 q=28.0 size=     768KiB time=00:00:16.52 bitrate= 380.9kbits/s speed=3.64x elapsed=0:00:04.54    frame=  485 fps= 96 q=28.0 size=     768KiB time=00:00:19.32 bitrate= 325.7kbits/s speed=3.81x elapsed=0:00:05.06    frame=  537 fps= 96 q=28.0 size=    1280KiB time=00:00:21.40 bitrate= 490.0kbits/s speed=3.82x elapsed=0:00:05.60    frame=  589 fps= 94 q=28.0 size=    1280KiB time=00:00:23.48 bitrate= 446.6kbits/s speed=3.77x elapsed=0:00:06.23    frame=  637 fps= 93 q=28.0 size=    1280KiB time=00:00:25.40 bitrate= 412.8kbits/s speed=3.69x elapsed=0:00:06.88    frame=  689 fps= 92 q=28.0 size=    1280KiB time=00:00:27.48 bitrate= 381.6kbits/s speed=3.67x elapsed=0:00:07.48    frame=  750 fps= 94 q=28.0 size=    1280KiB time=00:00:29.92 bitrate= 350.5kbits/s speed=3.74x elapsed=0:00:08.00    frame=  833 fps= 97 q=28.0 size=    1792KiB time=00:00:33.24 bitrate= 441.7kbits/s speed=3.88x elapsed=0:00:08.57    frame=  915 fps=100 q=28.0 size=    1792KiB time=00:00:36.52 bitrate= 402.0kbits/s speed=3.98x elapsed=0:00:09.17    frame=  991 fps=102 q=28.0 size=    1792KiB time=00:00:39.56 bitrate= 371.1kbits/s speed=4.06x elapsed=0:00:09.75    frame= 1053 fps=102 q=28.0 size=    2048KiB time=00:00:42.04 bitrate= 399.1kbits/s speed=4.08x elapsed=0:00:10.30    frame= 1129 fps=104 q=28.0 size=    2304KiB time=00:00:45.08 bitrate= 418.7kbits/s speed=4.15x elapsed=0:00:10.86    frame= 1209 fps=106 q=28.0 size=    2304KiB time=00:00:48.28 bitrate= 390.9kbits/s speed=4.22x elapsed=0:00:11.42    frame= 1293 fps=107 q=28.0 size=    2560KiB time=00:00:51.64 bitrate= 406.1kbits/s speed=4.29x elapsed=0:00:12.05    frame= 1365 fps=109 q=28.0 size=    2816KiB time=00:00:54.52 bitrate= 423.1kbits/s speed=4.34x elapsed=0:00:12.55    frame= 1449 fps=111 q=28.0 size=    2816KiB time=00:00:57.88 bitrate= 398.6kbits/s speed=4.41x elapsed=0:00:13.11    frame= 1519 fps=112 q=28.0 size=    3072KiB time=00:01:00.68 bitrate= 414.7kbits/s speed=4.46x elapsed=0:00:13.61    frame= 1602 fps=113 q=28.0 size=    3072KiB time=00:01:04.04 bitrate= 393.0kbits/s speed=4.51x elapsed=0:00:14.18    frame= 1699 fps=115 q=28.0 size=    3328KiB time=00:01:07.88 bitrate= 401.6kbits/s speed=4.58x elapsed=0:00:14.82    frame= 1796 fps=116 q=28.0 size=    3584KiB time=N/A bitrate=N/A speed=N/A elapsed=0:00:15.42    [out#0/mp4 @ 0x600000068540] video:2334KiB audio:1357KiB subtitle:0KiB other streams:0KiB global headers:0KiB muxing overhead: 1.477281%
frame= 1811 fps=117 q=-1.0 Lsize=    3745KiB time=00:01:10.56 bitrate= 434.8kbits/s speed=4.56x elapsed=0:00:15.48    
[libx264 @ 0x155e108b0] frame I:8     Avg QP:17.66  size:278149
[libx264 @ 0x155e108b0] frame P:456   Avg QP:17.33  size:   173
[libx264 @ 0x155e108b0] frame B:1347  Avg QP:32.31  size:    63
[libx264 @ 0x155e108b0] consecutive B-frames:  0.8%  0.0%  0.0% 99.2%
[libx264 @ 0x155e108b0] mb I  I16..4: 22.4% 27.3% 50.3%
[libx264 @ 0x155e108b0] mb P  I16..4:  0.0%  0.0%  0.0%  P16..4:  0.5%  0.0%  0.0%  0.0%  0.0%    skip:99.4%
[libx264 @ 0x155e108b0] mb B  I16..4:  0.0%  0.0%  0.0%  B16..8:  0.6%  0.0%  0.0%  direct: 0.0%  skip:99.4%  L0:40.2% L1:59.7% BI: 0.0%
[libx264 @ 0x155e108b0] 8x8 transform intra:27.2% inter:81.9%
[libx264 @ 0x155e108b0] coded y,uvDC,uvAC intra: 67.0% 82.3% 77.7% inter: 0.1% 0.0% 0.0%
[libx264 @ 0x155e108b0] i16 v,h,dc,p: 61% 34%  3%  3%
[libx264 @ 0x155e108b0] i8 v,h,dc,ddl,ddr,vr,hd,vl,hu: 17% 27% 23%  4%  5%  4%  7%  4% 11%
[libx264 @ 0x155e108b0] i4 v,h,dc,ddl,ddr,vr,hd,vl,hu: 20% 27% 15%  5%  7%  6%  7%  5%  8%
[libx264 @ 0x155e108b0] i8c dc,h,v,p: 35% 37% 19%  9%
[libx264 @ 0x155e108b0] Weighted P-Frames: Y:0.0% UV:0.0%
[libx264 @ 0x155e108b0] ref P L0: 92.4%  1.3%  5.3%  1.0%
[libx264 @ 0x155e108b0] ref B L0: 58.3% 41.4%  0.3%
[libx264 @ 0x155e108b0] ref B L1: 93.2%  6.8%
[libx264 @ 0x155e108b0] kb/s:263.82
[aac @ 0x155e12b00] Qavg: 58012.949
Creating English video...
ffmpeg version 8.1.1 Copyright (c) 2000-2026 the FFmpeg developers
  built with Apple clang version 17.0.0 (clang-1700.6.4.2)
  configuration: --prefix=/opt/homebrew/Cellar/ffmpeg/8.1.1 --enable-shared --enable-pthreads --enable-version3 --cc=clang --host-cflags= --host-ldflags= --enable-ffplay --enable-gpl --enable-libsvtav1 --enable-libopus --enable-libx264 --enable-libmp3lame --enable-libdav1d --enable-libvmaf --enable-libvpx --enable-libx265 --enable-openssl --enable-videotoolbox --enable-audiotoolbox --enable-neon
  libavutil      60. 26.101 / 60. 26.101
  libavcodec     62. 28.101 / 62. 28.101
  libavformat    62. 12.101 / 62. 12.101
  libavdevice    62.  3.101 / 62.  3.101
  libavfilter    11. 14.101 / 11. 14.101
  libswscale      9.  5.101 /  9.  5.101
  libswresample   6.  3.101 /  6.  3.101
Input #0, image2, from 'poster.jpg':
  Duration: 00:00:00.04, start: 0.000000, bitrate: 43548 kb/s
  Stream #0:0: Video: mjpeg (Progressive), yuvj420p(pc, bt470bg/unknown/unknown), 842x1191 [SAR 1:1 DAR 842:1191], 25 fps, 25 tbr, 25 tbn
[in#1/mp3 @ 0x157704e60] Estimating duration from bitrate, this may be inaccurate
Input #1, mp3, from 'english.mp3':
  Duration: 00:01:01.10, start: 0.000000, bitrate: 192 kb/s
  Stream #1:0: Audio: mp3 (mp3float), 48000 Hz, mono, fltp, 192 kb/s
Stream mapping:
  Stream #0:0 -> #0:0 (mjpeg (native) -> h264 (libx264))
  Stream #1:0 -> #0:1 (mp3 (mp3float) -> aac (native))
Press [q] to stop, [?] for help
[swscaler @ 0x148528000] deprecated pixel format used, make sure you did set range correctly
[libx264 @ 0x15760f3d0] using SAR=1190/1191
[libx264 @ 0x15760f3d0] using cpu capabilities: ARMv8 NEON DotProd
[libx264 @ 0x15760f3d0] profile High, level 3.2, 4:2:0, 8-bit
[libx264 @ 0x15760f3d0] 264 - core 165 r3222 b35605a - H.264/MPEG-4 AVC codec - Copyleft 2003-2025 - http://www.videolan.org/x264.html - options: cabac=1 ref=3 deblock=1:-3:-3 analyse=0x3:0x113 me=hex subme=7 psy=1 psy_rd=2.00:0.70 mixed_ref=1 me_range=16 chroma_me=1 trellis=1 8x8dct=1 cqm=0 deadzone=21,11 fast_pskip=1 chroma_qp_offset=-4 threads=4 lookahead_threads=1 sliced_threads=0 nr=0 decimate=1 interlaced=0 bluray_compat=0 constrained_intra=0 bframes=3 b_pyramid=2 b_adapt=1 b_bias=0 direct=1 weightb=1 open_gop=0 weightp=2 keyint=250 keyint_min=25 scenecut=40 intra_refresh=0 rc_lookahead=40 rc=crf mbtree=1 crf=23.0 qcomp=0.60 qpmin=0 qpmax=69 qpstep=4 ip_ratio=1.40 aq=1:1.20
Output #0, mp4, to 'vesak_english.mp4':
  Metadata:
    encoder         : Lavf62.12.101
  Stream #0:0: Video: h264 (avc1 / 0x31637661), yuv420p(pc, bt470bg/unknown/unknown, progressive), 842x1190 [SAR 1190:1191 DAR 842:1191], q=2-31, 25 fps, 12800 tbn
    Metadata:
      encoder         : Lavc62.28.101 libx264
    Side data:
      CPB properties: bitrate max/min/avg: 0/0/0 buffer size: 0 vbv_delay: N/A
  Stream #0:1: Audio: aac (LC) (mp4a / 0x6134706D), 48000 Hz, mono, fltp, 192 kb/s
    Metadata:
      encoder         : Lavc62.28.101 aac
frame=   26 fps=0.0 q=28.0 size=     256KiB time=00:00:00.96 bitrate=2184.9kbits/s speed=1.88x elapsed=0:00:00.50    frame=   90 fps= 89 q=28.0 size=     256KiB time=00:00:03.52 bitrate= 595.9kbits/s speed=3.48x elapsed=0:00:01.01    frame=  132 fps= 87 q=28.0 size=     256KiB time=00:00:05.20 bitrate= 403.4kbits/s speed=3.44x elapsed=0:00:01.51    frame=  189 fps= 91 q=28.0 size=     256KiB time=00:00:07.48 bitrate= 280.4kbits/s speed=3.61x elapsed=0:00:02.07    frame=  260 fps= 97 q=28.0 size=     768KiB time=00:00:10.32 bitrate= 609.7kbits/s speed=3.85x elapsed=0:00:02.68    frame=  267 fps= 82 q=28.0 size=     768KiB time=00:00:10.60 bitrate= 593.6kbits/s speed=3.25x elapsed=0:00:03.26    frame=  267 fps= 69 q=28.0 size=     768KiB time=00:00:10.60 bitrate= 593.6kbits/s speed=2.74x elapsed=0:00:03.87    frame=  319 fps= 73 q=28.0 size=     768KiB time=00:00:12.68 bitrate= 496.2kbits/s speed=2.89x elapsed=0:00:04.39    frame=  395 fps= 81 q=28.0 size=     768KiB time=00:00:15.72 bitrate= 400.2kbits/s speed=3.21x elapsed=0:00:04.89    frame=  481 fps= 89 q=28.0 size=     768KiB time=00:00:19.16 bitrate= 328.4kbits/s speed=3.53x elapsed=0:00:05.43    frame=  570 fps= 95 q=28.0 size=    1280KiB time=00:00:22.76 bitrate= 460.7kbits/s speed=3.78x elapsed=0:00:06.01    frame=  649 fps=100 q=28.0 size=    1280KiB time=00:00:25.88 bitrate= 405.2kbits/s speed=3.97x elapsed=0:00:06.51    frame=  742 fps=105 q=28.0 size=    1280KiB time=00:00:29.64 bitrate= 353.8kbits/s speed=4.18x elapsed=0:00:07.08    frame=  840 fps=109 q=28.0 size=    1792KiB time=00:00:33.52 bitrate= 438.0kbits/s speed=4.36x elapsed=0:00:07.68    frame=  921 fps=112 q=28.0 size=    1792KiB time=00:00:36.76 bitrate= 399.4kbits/s speed=4.48x elapsed=0:00:08.21    frame= 1013 fps=115 q=28.0 size=    2304KiB time=00:00:40.44 bitrate= 466.7kbits/s speed=4.59x elapsed=0:00:08.80    frame= 1087 fps=115 q=28.0 size=    2304KiB time=00:00:43.40 bitrate= 434.9kbits/s speed= 4.6x elapsed=0:00:09.43    frame= 1153 fps=116 q=28.0 size=    2304KiB time=00:00:46.04 bitrate= 410.0kbits/s speed=4.62x elapsed=0:00:09.95    frame= 1227 fps=116 q=28.0 size=    2304KiB time=00:00:49.00 bitrate= 385.2kbits/s speed=4.64x elapsed=0:00:10.55    frame= 1307 fps=117 q=28.0 size=    2816KiB time=00:00:52.20 bitrate= 441.9kbits/s speed=4.66x elapsed=0:00:11.20    frame= 1383 fps=117 q=28.0 size=    2816KiB time=00:00:55.24 bitrate= 417.6kbits/s speed=4.68x elapsed=0:00:11.80    frame= 1471 fps=118 q=28.0 size=    2816KiB time=00:00:58.76 bitrate= 392.6kbits/s speed=4.72x elapsed=0:00:12.44    frame= 1558 fps=119 q=28.0 size=    3328KiB time=N/A bitrate=N/A speed=N/A elapsed=0:00:13.03    [out#0/mp4 @ 0x60000279c3c0] video:2037KiB audio:1341KiB subtitle:0KiB other streams:0KiB global headers:0KiB muxing overhead: 1.404881%
frame= 1571 fps=120 q=-1.0 Lsize=    3425KiB time=00:01:01.10 bitrate= 459.1kbits/s speed=4.67x elapsed=0:00:13.08    
[libx264 @ 0x15760f3d0] frame I:7     Avg QP:17.71  size:277328
[libx264 @ 0x15760f3d0] frame P:396   Avg QP:17.52  size:   174
[libx264 @ 0x15760f3d0] frame B:1168  Avg QP:31.78  size:    64
[libx264 @ 0x15760f3d0] consecutive B-frames:  0.8%  0.1%  0.0% 99.0%
[libx264 @ 0x15760f3d0] mb I  I16..4: 22.3% 27.4% 50.3%
[libx264 @ 0x15760f3d0] mb P  I16..4:  0.0%  0.0%  0.0%  P16..4:  0.5%  0.0%  0.1%  0.0%  0.0%    skip:99.4%
[libx264 @ 0x15760f3d0] mb B  I16..4:  0.0%  0.0%  0.0%  B16..8:  0.6%  0.0%  0.0%  direct: 0.0%  skip:99.4%  L0:41.6% L1:58.4% BI: 0.0%
[libx264 @ 0x15760f3d0] 8x8 transform intra:27.3% inter:81.5%
[libx264 @ 0x15760f3d0] coded y,uvDC,uvAC intra: 66.8% 82.2% 77.6% inter: 0.1% 0.0% 0.0%
[libx264 @ 0x15760f3d0] i16 v,h,dc,p: 61% 34%  3%  2%
[libx264 @ 0x15760f3d0] i8 v,h,dc,ddl,ddr,vr,hd,vl,hu: 17% 26% 23%  4%  5%  4%  7%  4% 11%
[libx264 @ 0x15760f3d0] i4 v,h,dc,ddl,ddr,vr,hd,vl,hu: 20% 27% 15%  5%  7%  6%  7%  5%  8%
[libx264 @ 0x15760f3d0] i8c dc,h,v,p: 35% 37% 19%  9%
[libx264 @ 0x15760f3d0] Weighted P-Frames: Y:0.0% UV:0.0%
[libx264 @ 0x15760f3d0] ref P L0: 91.6%  1.4%  5.9%  1.0%
[libx264 @ 0x15760f3d0] ref B L0: 56.8% 43.0%  0.3%
[libx264 @ 0x15760f3d0] ref B L1: 93.4%  6.6%
[libx264 @ 0x15760f3d0] kb/s:265.40
[aac @ 0x157611620] Qavg: 53113.797

Done!
  vesak_sinhala.mp4
  vesak_english.mp4
